<svg width="30" height="31" viewBox="0 0 30 31" fill="none" xmlns="http://www.w3.org/2000/svg">
<path d="M9.16667 14.75C8.75245 14.75 8.41667 15.0858 8.41667 15.5C8.41667 15.9142 8.75245 16.25 9.16667 16.25V14.75ZM20.6 15.5L21.1303 16.0303C21.271 15.8897 21.35 15.6989 21.35 15.5C21.35 15.3011 21.271 15.1103 21.1303 14.9697L20.6 15.5ZM16.9303 10.7697C16.6374 10.4768 16.1626 10.4768 15.8697 10.7697C15.5768 11.0626 15.5768 11.5374 15.8697 11.8303L16.9303 10.7697ZM15.8697 19.1697C15.5768 19.4626 15.5768 19.9374 15.8697 20.2303C16.1626 20.5232 16.6374 20.5232 16.9303 20.2303L15.8697 19.1697ZM28.25 15.5C28.25 22.8178 22.3178 28.75 15 28.75V30.25C23.1462 30.25 29.75 23.6462 29.75 15.5H28.25ZM15 28.75C7.68223 28.75 1.75 22.8178 1.75 15.5H0.25C0.25 23.6462 6.8538 30.25 15 30.25V28.75ZM1.75 15.5C1.75 8.18223 7.68223 2.25 15 2.25V0.75C6.8538 0.75 0.25 7.3538 0.25 15.5H1.75ZM15 2.25C22.3178 2.25 28.25 8.18223 28.25 15.5H29.75C29.75 7.3538 23.1462 0.75 15 0.75V2.25ZM9.16667 16.25C9.17948 16.25 9.19226 16.25 9.20501 16.25C9.21777 16.25 9.23049 16.25 9.24317 16.25C9.25586 16.25 9.26852 16.25 9.28115 16.25C9.29377 16.25 9.30637 16.25 9.31893 16.25C9.3315 16.25 9.34403 16.25 9.35653 16.25C9.36904 16.25 9.38151 16.25 9.39395 16.25C9.40639 16.25 9.4188 16.25 9.43118 16.25C9.44356 16.25 9.45591 16.25 9.46823 16.25C9.48054 16.25 9.49283 16.25 9.50509 16.25C9.51735 16.25 9.52958 16.25 9.54177 16.25C9.55397 16.25 9.56614 16.25 9.57827 16.25C9.59041 16.25 9.60252 16.25 9.61459 16.25C9.62667 16.25 9.63872 16.25 9.65073 16.25C9.66275 16.25 9.67474 16.25 9.68669 16.25C9.69865 16.25 9.71058 16.25 9.72248 16.25C9.73437 16.25 9.74624 16.25 9.75808 16.25C9.76992 16.25 9.78173 16.25 9.79351 16.25C9.80529 16.25 9.81704 16.25 9.82876 16.25C9.84048 16.25 9.85217 16.25 9.86383 16.25C9.8755 16.25 9.88713 16.25 9.89873 16.25C9.91034 16.25 9.92191 16.25 9.93346 16.25C9.94501 16.25 9.95653 16.25 9.96801 16.25C9.9795 16.25 9.99096 16.25 10.0024 16.25C10.0138 16.25 10.0252 16.25 10.0366 16.25C10.048 16.25 10.0593 16.25 10.0706 16.25C10.082 16.25 10.0932 16.25 10.1045 16.25C10.1158 16.25 10.127 16.25 10.1382 16.25C10.1494 16.25 10.1606 16.25 10.1717 16.25C10.1829 16.25 10.194 16.25 10.2051 16.25C10.2162 16.25 10.2273 16.25 10.2383 16.25C10.2493 16.25 10.2603 16.25 10.2713 16.25C10.2823 16.25 10.2933 16.25 10.3042 16.25C10.3151 16.25 10.326 16.25 10.3369 16.25C10.3477 16.25 10.3586 16.25 10.3694 16.25C10.3802 16.25 10.391 16.25 10.4018 16.25C10.4125 16.25 10.4233 16.25 10.434 16.25C10.4447 16.25 10.4554 16.25 10.466 16.25C10.4767 16.25 10.4873 16.25 10.4979 16.25C10.5085 16.25 10.5191 16.25 10.5296 16.25C10.5402 16.25 10.5507 16.25 10.5612 16.25C10.5717 16.25 10.5821 16.25 10.5926 16.25C10.603 16.25 10.6134 16.25 10.6238 16.25C10.6342 16.25 10.6446 16.25 10.6549 16.25C10.6652 16.25 10.6756 16.25 10.6858 16.25C10.6961 16.25 10.7064 16.25 10.7166 16.25C10.7268 16.25 10.737 16.25 10.7472 16.25C10.7574 16.25 10.7676 16.25 10.7777 16.25C10.7878 16.25 10.7979 16.25 10.808 16.25C10.8181 16.25 10.8281 16.25 10.8381 16.25C10.8482 16.25 10.8582 16.25 10.8681 16.25C10.8781 16.25 10.8881 16.25 10.898 16.25C10.9079 16.25 10.9178 16.25 10.9277 16.25C10.9376 16.25 10.9474 16.25 10.9572 16.25C10.9671 16.25 10.9769 16.25 10.9866 16.25C10.9964 16.25 11.0061 16.25 11.0159 16.25C11.0256 16.25 11.0353 16.25 11.045 16.25C11.0546 16.25 11.0643 16.25 11.0739 16.25C11.0836 16.25 11.0932 16.25 11.1027 16.25C11.1123 16.25 11.1219 16.25 11.1314 16.25C11.1409 16.25 11.1504 16.25 11.1599 16.25C11.1694 16.25 11.1788 16.25 11.1883 16.25C11.1977 16.25 11.2071 16.25 11.2165 16.25C11.2259 16.25 11.2352 16.25 11.2446 16.25C11.2539 16.25 11.2632 16.25 11.2725 16.25C11.2818 16.25 11.2911 16.25 11.3003 16.25C11.3096 16.25 11.3188 16.25 11.328 16.25C11.3372 16.25 11.3463 16.25 11.3555 16.25C11.3646 16.25 11.3738 16.25 11.3829 16.25C11.392 16.25 11.4011 16.25 11.4101 16.25C11.4192 16.25 11.4282 16.25 11.4372 16.25C11.4462 16.25 11.4552 16.25 11.4642 16.25C11.4731 16.25 11.4821 16.25 11.491 16.25C11.4999 16.25 11.5088 16.25 11.5177 16.25C11.5266 16.25 11.5354 16.25 11.5443 16.25C11.5531 16.25 11.5619 16.25 11.5707 16.25C11.5795 16.25 11.5882 16.25 11.597 16.25C11.6057 16.25 11.6144 16.25 11.6231 16.25C11.6318 16.25 11.6405 16.25 11.6491 16.25C11.6578 16.25 11.6664 16.25 11.675 16.25C11.6836 16.25 11.6922 16.25 11.7008 16.25C11.7094 16.25 11.7179 16.25 11.7264 16.25C11.735 16.25 11.7435 16.25 11.7519 16.25C11.7604 16.25 11.7689 16.25 11.7773 16.25C11.7858 16.25 11.7942 16.25 11.8026 16.25C11.811 16.25 11.8193 16.25 11.8277 16.25C11.836 16.25 11.8444 16.25 11.8527 16.25C11.861 16.25 11.8693 16.25 11.8775 16.25C11.8858 16.25 11.8941 16.25 11.9023 16.25C11.9105 16.25 11.9187 16.25 11.9269 16.25C11.9351 16.25 11.9433 16.25 11.9514 16.25C11.9596 16.25 11.9677 16.25 11.9758 16.25C11.9839 16.25 11.992 16.25 12 16.25C12.0081 16.25 12.0162 16.25 12.0242 16.25C12.0322 16.25 12.0402 16.25 12.0482 16.25C12.0562 16.25 12.0641 16.25 12.0721 16.25C12.08 16.25 12.088 16.25 12.0959 16.25C12.1038 16.25 12.1116 16.25 12.1195 16.25C12.1274 16.25 12.1352 16.25 12.1431 16.25C12.1509 16.25 12.1587 16.25 12.1665 16.25C12.1743 16.25 12.182 16.25 12.1898 16.25C12.1975 16.25 12.2053 16.25 12.213 16.25C12.2207 16.25 12.2284 16.25 12.236 16.25C12.2437 16.25 12.2514 16.25 12.259 16.25C12.2667 16.25 12.2743 16.25 12.2819 16.25C12.2895 16.25 12.297 16.25 12.3046 16.25C12.3122 16.25 12.3197 16.25 12.3272 16.25C12.3348 16.25 12.3423 16.25 12.3497 16.25C12.3572 16.25 12.3647 16.25 12.3722 16.25C12.3796 16.25 12.387 16.25 12.3945 16.25C12.4019 16.25 12.4093 16.25 12.4166 16.25C12.424 16.25 12.4314 16.25 12.4387 16.25C12.4461 16.25 12.4534 16.25 12.4607 16.25C12.468 16.25 12.4753 16.25 12.4826 16.25C12.4898 16.25 12.4971 16.25 12.5043 16.25C12.5116 16.25 12.5188 16.25 12.526 16.25C12.5332 16.25 12.5404 16.25 12.5475 16.25C12.5547 16.25 12.5619 16.25 12.569 16.25C12.5761 16.25 12.5832 16.25 12.5903 16.25C12.5974 16.25 12.6045 16.25 12.6116 16.25C12.6187 16.25 12.6257 16.25 12.6327 16.25C12.6398 16.25 12.6468 16.25 12.6538 16.25C12.6608 16.25 12.6678 16.25 12.6747 16.25C12.6817 16.25 12.6886 16.25 12.6956 16.25C12.7025 16.25 12.7094 16.25 12.7163 16.25C12.7232 16.25 12.7301 16.25 12.737 16.25C12.7438 16.25 12.7507 16.25 12.7575 16.25C12.7644 16.25 12.7712 16.25 12.778 16.25C12.7848 16.25 12.7916 16.25 12.7984 16.25C12.8051 16.25 12.8119 16.25 12.8186 16.25C12.8254 16.25 12.8321 16.25 12.8388 16.25C12.8455 16.25 12.8522 16.25 12.8589 16.25C12.8656 16.25 12.8722 16.25 12.8789 16.25C12.8855 16.25 12.8922 16.25 12.8988 16.25C12.9054 16.25 12.912 16.25 12.9186 16.25C12.9252 16.25 12.9317 16.25 12.9383 16.25C12.9449 16.25 12.9514 16.25 12.9579 16.25C12.9645 16.25 12.971 16.25 12.9775 16.25C12.984 16.25 12.9905 16.25 12.9969 16.25C13.0034 16.25 13.0099 16.25 13.0163 16.25C13.0227 16.25 13.0292 16.25 13.0356 16.25C13.042 16.25 13.0484 16.25 13.0548 16.25C13.0612 16.25 13.0675 16.25 13.0739 16.25C13.0802 16.25 13.0866 16.25 13.0929 16.25C13.0992 16.25 13.1055 16.25 13.1118 16.25C13.1181 16.25 13.1244 16.25 13.1307 16.25C13.137 16.25 13.1432 16.25 13.1495 16.25C13.1557 16.25 13.162 16.25 13.1682 16.25C13.1744 16.25 13.1806 16.25 13.1868 16.25C13.193 16.25 13.1992 16.25 13.2053 16.25C13.2115 16.25 13.2176 16.25 13.2238 16.25C13.2299 16.25 13.2361 16.25 13.2422 16.25C13.2483 16.25 13.2544 16.25 13.2605 16.25C13.2666 16.25 13.2726 16.25 13.2787 16.25C13.2848 16.25 13.2908 16.25 13.2968 16.25C13.3029 16.25 13.3089 16.25 13.3149 16.25C13.3209 16.25 13.3269 16.25 13.3329 16.25C13.3389 16.25 13.3449 16.25 13.3508 16.25C13.3568 16.25 13.3628 16.25 13.3687 16.25C13.3746 16.25 13.3806 16.25 13.3865 16.25C13.3924 16.25 13.3983 16.25 13.4042 16.25C13.4101 16.25 13.416 16.25 13.4218 16.25C13.4277 16.25 13.4335 16.25 13.4394 16.25C13.4452 16.25 13.4511 16.25 13.4569 16.25C13.4627 16.25 13.4685 16.25 13.4743 16.25C13.4801 16.25 13.4859 16.25 13.4917 16.25C13.4975 16.25 13.5032 16.25 13.509 16.25C13.5147 16.25 13.5205 16.25 13.5262 16.25C13.5319 16.25 13.5377 16.25 13.5434 16.25C13.5491 16.25 13.5548 16.25 13.5605 16.25C13.5662 16.25 13.5718 16.25 13.5775 16.25C13.5832 16.25 13.5888 16.25 13.5945 16.25C13.6001 16.25 13.6058 16.25 13.6114 16.25C13.617 16.25 13.6226 16.25 13.6282 16.25C13.6338 16.25 13.6394 16.25 13.645 16.25C13.6506 16.25 13.6562 16.25 13.6617 16.25C13.6673 16.25 13.6729 16.25 13.6784 16.25C13.6839 16.25 13.6895 16.25 13.695 16.25C13.7005 16.25 13.706 16.25 13.7116 16.25C13.7171 16.25 13.7226 16.25 13.728 16.25C13.7335 16.25 13.739 16.25 13.7445 16.25C13.7499 16.25 13.7554 16.25 13.7609 16.25C13.7663 16.25 13.7717 16.25 13.7772 16.25C13.7826 16.25 13.788 16.25 13.7934 16.25C13.7989 16.25 13.8043 16.25 13.8097 16.25C13.8151 16.25 13.8204 16.25 13.8258 16.25C13.8312 16.25 13.8366 16.25 13.8419 16.25C13.8473 16.25 13.8526 16.25 13.858 16.25C13.8633 16.25 13.8687 16.25 13.874 16.25C13.8793 16.25 13.8846 16.25 13.8899 16.25C13.8953 16.25 13.9006 16.25 13.9058 16.25C13.9111 16.25 13.9164 16.25 13.9217 16.25C13.927 16.25 13.9323 16.25 13.9375 16.25C13.9428 16.25 13.948 16.25 13.9533 16.25C13.9585 16.25 13.9638 16.25 13.969 16.25C13.9742 16.25 13.9794 16.25 13.9847 16.25C13.9899 16.25 13.9951 16.25 14.0003 16.25C14.0055 16.25 14.0107 16.25 14.0159 16.25C14.0211 16.25 14.0262 16.25 14.0314 16.25C14.0366 16.25 14.0417 16.25 14.0469 16.25C14.0521 16.25 14.0572 16.25 14.0623 16.25C14.0675 16.25 14.0726 16.25 14.0778 16.25C14.0829 16.25 14.088 16.25 14.0931 16.25C14.0982 16.25 14.1034 16.25 14.1085 16.25C14.1136 16.25 14.1187 16.25 14.1238 16.25C14.1288 16.25 14.1339 16.25 14.139 16.25C14.1441 16.25 14.1492 16.25 14.1542 16.25C14.1593 16.25 14.1643 16.25 14.1694 16.25C14.1745 16.25 14.1795 16.25 14.1845 16.25C14.1896 16.25 14.1946 16.25 14.1996 16.25C14.2047 16.25 14.2097 16.25 14.2147 16.25C14.2197 16.25 14.2248 16.25 14.2298 16.25C14.2348 16.25 14.2398 16.25 14.2448 16.25C14.2498 16.25 14.2548 16.25 14.2597 16.25C14.2647 16.25 14.2697 16.25 14.2747 16.25C14.2797 16.25 14.2846 16.25 14.2896 16.25C14.2946 16.25 14.2995 16.25 14.3045 16.25C14.3094 16.25 14.3144 16.25 14.3193 16.25C14.3243 16.25 14.3292 16.25 14.3341 16.25C14.3391 16.25 14.344 16.25 14.3489 16.25C14.3539 16.25 14.3588 16.25 14.3637 16.25C14.3686 16.25 14.3735 16.25 14.3784 16.25C14.3833 16.25 14.3883 16.25 14.3932 16.25C14.3981 16.25 14.403 16.25 14.4078 16.25C14.4127 16.25 14.4176 16.25 14.4225 16.25C14.4274 16.25 14.4323 16.25 14.4371 16.25C14.442 16.25 14.4469 16.25 14.4518 16.25C14.4566 16.25 14.4615 16.25 14.4664 16.25C14.4712 16.25 14.4761 16.25 14.4809 16.25C14.4858 16.25 14.4906 16.25 14.4955 16.25C14.5003 16.25 14.5052 16.25 14.51 16.25C14.5149 16.25 14.5197 16.25 14.5245 16.25C14.5294 16.25 14.5342 16.25 14.539 16.25C14.5439 16.25 14.5487 16.25 14.5535 16.25C14.5583 16.25 14.5632 16.25 14.568 16.25C14.5728 16.25 14.5776 16.25 14.5824 16.25C14.5872 16.25 14.592 16.25 14.5969 16.25C14.6017 16.25 14.6065 16.25 14.6113 16.25C14.6161 16.25 14.6209 16.25 14.6257 16.25C14.6305 16.25 14.6353 16.25 14.6401 16.25C14.6448 16.25 14.6496 16.25 14.6544 16.25C14.6592 16.25 14.664 16.25 14.6688 16.25C14.6736 16.25 14.6784 16.25 14.6831 16.25C14.6879 16.25 14.6927 16.25 14.6975 16.25C14.7023 16.25 14.707 16.25 14.7118 16.25C14.7166 16.25 14.7214 16.25 14.7261 16.25C14.7309 16.25 14.7357 16.25 14.7405 16.25C14.7452 16.25 14.75 16.25 14.7548 16.25C14.7595 16.25 14.7643 16.25 14.7691 16.25C14.7738 16.25 14.7786 16.25 14.7834 16.25C14.7881 16.25 14.7929 16.25 14.7977 16.25C14.8024 16.25 14.8072 16.25 14.8119 16.25C14.8167 16.25 14.8215 16.25 14.8262 16.25C14.831 16.25 14.8357 16.25 14.8405 16.25C14.8453 16.25 14.85 16.25 14.8548 16.25C14.8595 16.25 14.8643 16.25 14.8691 16.25C14.8738 16.25 14.8786 16.25 14.8833 16.25C14.8881 16.25 14.8928 16.25 14.8976 16.25C14.9024 16.25 14.9071 16.25 14.9119 16.25C14.9166 16.25 14.9214 16.25 14.9262 16.25C14.9309 16.25 14.9357 16.25 14.9404 16.25C14.9452 16.25 14.95 16.25 14.9547 16.25C14.9595 16.25 14.9642 16.25 14.969 16.25C14.9738 16.25 14.9785 16.25 14.9833 16.25C14.9881 16.25 14.9928 16.25 14.9976 16.25C15.0024 16.25 15.0071 16.25 15.0119 16.25C15.0167 16.25 15.0214 16.25 15.0262 16.25C15.031 16.25 15.0357 16.25 15.0405 16.25C15.0453 16.25 15.0501 16.25 15.0548 16.25C15.0596 16.25 15.0644 16.25 15.0692 16.25C15.074 16.25 15.0787 16.25 15.0835 16.25C15.0883 16.25 15.0931 16.25 15.0979 16.25C15.1027 16.25 15.1074 16.25 15.1122 16.25C15.117 16.25 15.1218 16.25 15.1266 16.25C15.1314 16.25 15.1362 16.25 15.141 16.25C15.1458 16.25 15.1506 16.25 15.1554 16.25C15.1602 16.25 15.165 16.25 15.1698 16.25C15.1746 16.25 15.1794 16.25 15.1842 16.25C15.1891 16.25 15.1939 16.25 15.1987 16.25C15.2035 16.25 15.2083 16.25 15.2132 16.25C15.218 16.25 15.2228 16.25 15.2276 16.25C15.2325 16.25 15.2373 16.25 15.2421 16.25C15.247 16.25 15.2518 16.25 15.2566 16.25C15.2615 16.25 15.2663 16.25 15.2712 16.25C15.276 16.25 15.2809 16.25 15.2857 16.25C15.2906 16.25 15.2954 16.25 15.3003 16.25C15.3052 16.25 15.31 16.25 15.3149 16.25C15.3198 16.25 15.3246 16.25 15.3295 16.25C15.3344 16.25 15.3393 16.25 15.3442 16.25C15.349 16.25 15.3539 16.25 15.3588 16.25C15.3637 16.25 15.3686 16.25 15.3735 16.25C15.3784 16.25 15.3833 16.25 15.3882 16.25C15.3931 16.25 15.398 16.25 15.403 16.25C15.4079 16.25 15.4128 16.25 15.4177 16.25C15.4227 16.25 15.4276 16.25 15.4325 16.25C15.4375 16.25 15.4424 16.25 15.4473 16.25C15.4523 16.25 15.4572 16.25 15.4622 16.25C15.4672 16.25 15.4721 16.25 15.4771 16.25C15.482 16.25 15.487 16.25 15.492 16.25C15.497 16.25 15.5019 16.25 15.5069 16.25C15.5119 16.25 15.5169 16.25 15.5219 16.25C15.5269 16.25 15.5319 16.25 15.5369 16.25C15.5419 16.25 15.5469 16.25 15.5519 16.25C15.557 16.25 15.562 16.25 15.567 16.25C15.572 16.25 15.5771 16.25 15.5821 16.25C15.5872 16.25 15.5922 16.25 15.5973 16.25C15.6023 16.25 15.6074 16.25 15.6124 16.25C15.6175 16.25 15.6226 16.25 15.6277 16.25C15.6327 16.25 15.6378 16.25 15.6429 16.25C15.648 16.25 15.6531 16.25 15.6582 16.25C15.6633 16.25 15.6684 16.25 15.6735 16.25C15.6787 16.25 15.6838 16.25 15.6889 16.25C15.694 16.25 15.6992 16.25 15.7043 16.25C15.7095 16.25 15.7146 16.25 15.7198 16.25C15.7249 16.25 15.7301 16.25 15.7353 16.25C15.7404 16.25 15.7456 16.25 15.7508 16.25C15.756 16.25 15.7612 16.25 15.7664 16.25C15.7716 16.25 15.7768 16.25 15.782 16.25C15.7872 16.25 15.7924 16.25 15.7977 16.25C15.8029 16.25 15.8081 16.25 15.8134 16.25C15.8186 16.25 15.8239 16.25 15.8292 16.25C15.8344 16.25 15.8397 16.25 15.845 16.25C15.8502 16.25 15.8555 16.25 15.8608 16.25C15.8661 16.25 15.8714 16.25 15.8767 16.25C15.882 16.25 15.8874 16.25 15.8927 16.25C15.898 16.25 15.9033 16.25 15.9087 16.25C15.914 16.25 15.9194 16.25 15.9247 16.25C15.9301 16.25 15.9355 16.25 15.9408 16.25C15.9462 16.25 15.9516 16.25 15.957 16.25C15.9624 16.25 15.9678 16.25 15.9732 16.25C15.9786 16.25 15.9841 16.25 15.9895 16.25C15.9949 16.25 16.0004 16.25 16.0058 16.25C16.0113 16.25 16.0167 16.25 16.0222 16.25C16.0277 16.25 16.0331 16.25 16.0386 16.25C16.0441 16.25 16.0496 16.25 16.0551 16.25C16.0606 16.25 16.0661 16.25 16.0717 16.25C16.0772 16.25 16.0827 16.25 16.0883 16.25C16.0938 16.25 16.0994 16.25 16.1049 16.25C16.1105 16.25 16.1161 16.25 16.1217 16.25C16.1272 16.25 16.1328 16.25 16.1384 16.25C16.144 16.25 16.1497 16.25 16.1553 16.25C16.1609 16.25 16.1665 16.25 16.1722 16.25C16.1778 16.25 16.1835 16.25 16.1892 16.25C16.1948 16.25 16.2005 16.25 16.2062 16.25C16.2119 16.25 16.2176 16.25 16.2233 16.25C16.229 16.25 16.2347 16.25 16.2405 16.25C16.2462 16.25 16.2519 16.25 16.2577 16.25C16.2634 16.25 16.2692 16.25 16.275 16.25C16.2808 16.25 16.2865 16.25 16.2923 16.25C16.2981 16.25 16.304 16.25 16.3098 16.25C16.3156 16.25 16.3214 16.25 16.3273 16.25C16.3331 16.25 16.339 16.25 16.3448 16.25C16.3507 16.25 16.3566 16.25 16.3625 16.25C16.3684 16.25 16.3743 16.25 16.3802 16.25C16.3861 16.25 16.392 16.25 16.398 16.25C16.4039 16.25 16.4099 16.25 16.4158 16.25C16.4218 16.25 16.4278 16.25 16.4337 16.25C16.4397 16.25 16.4457 16.25 16.4517 16.25C16.4578 16.25 16.4638 16.25 16.4698 16.25C16.4759 16.25 16.4819 16.25 16.488 16.25C16.494 16.25 16.5001 16.25 16.5062 16.25C16.5123 16.25 16.5184 16.25 16.5245 16.25C16.5306 16.25 16.5367 16.25 16.5429 16.25C16.549 16.25 16.5552 16.25 16.5613 16.25C16.5675 16.25 16.5737 16.25 16.5799 16.25C16.5861 16.25 16.5923 16.25 16.5985 16.25C16.6047 16.25 16.6109 16.25 16.6172 16.25C16.6234 16.25 16.6297 16.25 16.636 16.25C16.6422 16.25 16.6485 16.25 16.6548 16.25C16.6611 16.25 16.6674 16.25 16.6738 16.25C16.6801 16.25 16.6864 16.25 16.6928 16.25C16.6991 16.25 16.7055 16.25 16.7119 16.25C16.7183 16.25 16.7247 16.25 16.7311 16.25C16.7375 16.25 16.7439 16.25 16.7504 16.25C16.7568 16.25 16.7633 16.25 16.7697 16.25C16.7762 16.25 16.7827 16.25 16.7892 16.25C16.7957 16.25 16.8022 16.25 16.8087 16.25C16.8153 16.25 16.8218 16.25 16.8284 16.25C16.8349 16.25 16.8415 16.25 16.8481 16.25C16.8547 16.25 16.8613 16.25 16.8679 16.25C16.8745 16.25 16.8811 16.25 16.8878 16.25C16.8944 16.25 16.9011 16.25 16.9078 16.25C16.9145 16.25 16.9212 16.25 16.9279 16.25C16.9346 16.25 16.9413 16.25 16.948 16.25C16.9548 16.25 16.9615 16.25 16.9683 16.25C16.9751 16.25 16.9819 16.25 16.9887 16.25C16.9955 16.25 17.0023 16.25 17.0091 16.25C17.016 16.25 17.0228 16.25 17.0297 16.25C17.0366 16.25 17.0434 16.25 17.0503 16.25C17.0572 16.25 17.0642 16.25 17.0711 16.25C17.078 16.25 17.085 16.25 17.0919 16.25C17.0989 16.25 17.1059 16.25 17.1129 16.25C17.1199 16.25 17.1269 16.25 17.1339 16.25C17.141 16.25 17.148 16.25 17.1551 16.25C17.1621 16.25 17.1692 16.25 17.1763 16.25C17.1834 16.25 17.1905 16.25 17.1977 16.25C17.2048 16.25 17.212 16.25 17.2191 16.25C17.2263 16.25 17.2335 16.25 17.2407 16.25C17.2479 16.25 17.2551 16.25 17.2623 16.25C17.2696 16.25 17.2768 16.25 17.2841 16.25C17.2914 16.25 17.2987 16.25 17.306 16.25C17.3133 16.25 17.3206 16.25 17.3279 16.25C17.3353 16.25 17.3426 16.25 17.35 16.25C17.3574 16.25 17.3648 16.25 17.3722 16.25C17.3796 16.25 17.3871 16.25 17.3945 16.25C17.402 16.25 17.4094 16.25 17.4169 16.25C17.4244 16.25 17.4319 16.25 17.4394 16.25C17.447 16.25 17.4545 16.25 17.4621 16.25C17.4696 16.25 17.4772 16.25 17.4848 16.25C17.4924 16.25 17.5 16.25 17.5077 16.25C17.5153 16.25 17.5229 16.25 17.5306 16.25C17.5383 16.25 17.546 16.25 17.5537 16.25C17.5614 16.25 17.5691 16.25 17.5769 16.25C17.5846 16.25 17.5924 16.25 17.6002 16.25C17.608 16.25 17.6158 16.25 17.6236 16.25C17.6314 16.25 17.6393 16.25 17.6472 16.25C17.655 16.25 17.6629 16.25 17.6708 16.25C17.6787 16.25 17.6866 16.25 17.6946 16.25C17.7025 16.25 17.7105 16.25 17.7185 16.25C17.7265 16.25 17.7345 16.25 17.7425 16.25C17.7505 16.25 17.7586 16.25 17.7666 16.25C17.7747 16.25 17.7828 16.25 17.7909 16.25C17.799 16.25 17.8071 16.25 17.8153 16.25C17.8234 16.25 17.8316 16.25 17.8398 16.25C17.8479 16.25 17.8561 16.25 17.8644 16.25C17.8726 16.25 17.8808 16.25 17.8891 16.25C17.8974 16.25 17.9057 16.25 17.914 16.25C17.9223 16.25 17.9306 16.25 17.939 16.25C17.9473 16.25 17.9557 16.25 17.9641 16.25C17.9725 16.25 17.9809 16.25 17.9894 16.25C17.9978 16.25 18.0062 16.25 18.0147 16.25C18.0232 16.25 18.0317 16.25 18.0402 16.25C18.0488 16.25 18.0573 16.25 18.0659 16.25C18.0744 16.25 18.083 16.25 18.0916 16.25C18.1002 16.25 18.1089 16.25 18.1175 16.25C18.1262 16.25 18.1348 16.25 18.1435 16.25C18.1522 16.25 18.161 16.25 18.1697 16.25C18.1784 16.25 18.1872 16.25 18.196 16.25C18.2048 16.25 18.2136 16.25 18.2224 16.25C18.2312 16.25 18.2401 16.25 18.249 16.25C18.2578 16.25 18.2667 16.25 18.2757 16.25C18.2846 16.25 18.2935 16.25 18.3025 16.25C18.3115 16.25 18.3204 16.25 18.3295 16.25C18.3385 16.25 18.3475 16.25 18.3566 16.25C18.3656 16.25 18.3747 16.25 18.3838 16.25C18.3929 16.25 18.402 16.25 18.4112 16.25C18.4203 16.25 18.4295 16.25 18.4387 16.25C18.4479 16.25 18.4571 16.25 18.4663 16.25C18.4756 16.25 18.4849 16.25 18.4941 16.25C18.5034 16.25 18.5128 16.25 18.5221 16.25C18.5314 16.25 18.5408 16.25 18.5502 16.25C18.5596 16.25 18.569 16.25 18.5784 16.25C18.5878 16.25 18.5973 16.25 18.6068 16.25C18.6162 16.25 18.6257 16.25 18.6353 16.25C18.6448 16.25 18.6544 16.25 18.6639 16.25C18.6735 16.25 18.6831 16.25 18.6927 16.25C18.7024 16.25 18.712 16.25 18.7217 16.25C18.7314 16.25 18.7411 16.25 18.7508 16.25C18.7605 16.25 18.7703 16.25 18.78 16.25C18.7898 16.25 18.7996 16.25 18.8094 16.25C18.8193 16.25 18.8291 16.25 18.839 16.25C18.8489 16.25 18.8588 16.25 18.8687 16.25C18.8786 16.25 18.8886 16.25 18.8985 16.25C18.9085 16.25 18.9185 16.25 18.9285 16.25C18.9386 16.25 18.9486 16.25 18.9587 16.25C18.9688 16.25 18.9789 16.25 18.989 16.25C18.9991 16.25 19.0093 16.25 19.0194 16.25C19.0296 16.25 19.0398 16.25 19.0501 16.25C19.0603 16.25 19.0706 16.25 19.0808 16.25C19.0911 16.25 19.1014 16.25 19.1118 16.25C19.1221 16.25 19.1325 16.25 19.1428 16.25C19.1532 16.25 19.1636 16.25 19.1741 16.25C19.1845 16.25 19.195 16.25 19.2055 16.25C19.216 16.25 19.2265 16.25 19.237 16.25C19.2476 16.25 19.2582 16.25 19.2688 16.25C19.2794 16.25 19.29 16.25 19.3006 16.25C19.3113 16.25 19.322 16.25 19.3327 16.25C19.3434 16.25 19.3541 16.25 19.3649 16.25C19.3757 16.25 19.3864 16.25 19.3973 16.25C19.4081 16.25 19.4189 16.25 19.4298 16.25C19.4407 16.25 19.4516 16.25 19.4625 16.25C19.4734 16.25 19.4844 16.25 19.4953 16.25C19.5063 16.25 19.5173 16.25 19.5284 16.25C19.5394 16.25 19.5505 16.25 19.5616 16.25C19.5727 16.25 19.5838 16.25 19.5949 16.25C19.6061 16.25 19.6173 16.25 19.6285 16.25C19.6397 16.25 19.6509 16.25 19.6622 16.25C19.6734 16.25 19.6847 16.25 19.696 16.25C19.7073 16.25 19.7187 16.25 19.7301 16.25C19.7414 16.25 19.7528 16.25 19.7643 16.25C19.7757 16.25 19.7872 16.25 19.7987 16.25C19.8101 16.25 19.8217 16.25 19.8332 16.25C19.8448 16.25 19.8563 16.25 19.8679 16.25C19.8795 16.25 19.8912 16.25 19.9028 16.25C19.9145 16.25 19.9262 16.25 19.9379 16.25C19.9496 16.25 19.9614 16.25 19.9732 16.25C19.9849 16.25 19.9967 16.25 20.0086 16.25C20.0204 16.25 20.0323 16.25 20.0442 16.25C20.0561 16.25 20.068 16.25 20.08 16.25C20.0919 16.25 20.1039 16.25 20.1159 16.25C20.128 16.25 20.14 16.25 20.1521 16.25C20.1642 16.25 20.1763 16.25 20.1884 16.25C20.2005 16.25 20.2127 16.25 20.2249 16.25C20.2371 16.25 20.2493 16.25 20.2616 16.25C20.2738 16.25 20.2861 16.25 20.2984 16.25C20.3108 16.25 20.3231 16.25 20.3355 16.25C20.3479 16.25 20.3603 16.25 20.3727 16.25C20.3852 16.25 20.3976 16.25 20.4101 16.25C20.4226 16.25 20.4352 16.25 20.4477 16.25C20.4603 16.25 20.4729 16.25 20.4855 16.25C20.4981 16.25 20.5108 16.25 20.5235 16.25C20.5362 16.25 20.5489 16.25 20.5617 16.25C20.5744 16.25 20.5872 16.25 20.6 16.25V14.75C20.5872 14.75 20.5744 14.75 20.5617 14.75C20.5489 14.75 20.5362 14.75 20.5235 14.75C20.5108 14.75 20.4981 14.75 20.4855 14.75C20.4729 14.75 20.4603 14.75 20.4477 14.75C20.4352 14.75 20.4226 14.75 20.4101 14.75C20.3976 14.75 20.3852 14.75 20.3727 14.75C20.3603 14.75 20.3479 14.75 20.3355 14.75C20.3231 14.75 20.3108 14.75 20.2984 14.75C20.2861 14.75 20.2738 14.75 20.2616 14.75C20.2493 14.75 20.2371 14.75 20.2249 14.75C20.2127 14.75 20.2005 14.75 20.1884 14.75C20.1763 14.75 20.1642 14.75 20.1521 14.75C20.14 14.75 20.128 14.75 20.1159 14.75C20.1039 14.75 20.0919 14.75 20.08 14.75C20.068 14.75 20.0561 14.75 20.0442 14.75C20.0323 14.75 20.0204 14.75 20.0086 14.75C19.9967 14.75 19.9849 14.75 19.9732 14.75C19.9614 14.75 19.9496 14.75 19.9379 14.75C19.9262 14.75 19.9145 14.75 19.9028 14.75C19.8912 14.75 19.8795 14.75 19.8679 14.75C19.8563 14.75 19.8448 14.75 19.8332 14.75C19.8217 14.75 19.8101 14.75 19.7987 14.75C19.7872 14.75 19.7757 14.75 19.7643 14.75C19.7528 14.75 19.7414 14.75 19.7301 14.75C19.7187 14.75 19.7073 14.75 19.696 14.75C19.6847 14.75 19.6734 14.75 19.6622 14.75C19.6509 14.75 19.6397 14.75 19.6285 14.75C19.6173 14.75 19.6061 14.75 19.5949 14.75C19.5838 14.75 19.5727 14.75 19.5616 14.75C19.5505 14.75 19.5394 14.75 19.5284 14.75C19.5173 14.75 19.5063 14.75 19.4953 14.75C19.4844 14.75 19.4734 14.75 19.4625 14.75C19.4516 14.75 19.4407 14.75 19.4298 14.75C19.4189 14.75 19.4081 14.75 19.3973 14.75C19.3864 14.75 19.3757 14.75 19.3649 14.75C19.3541 14.75 19.3434 14.75 19.3327 14.75C19.322 14.75 19.3113 14.75 19.3006 14.75C19.29 14.75 19.2794 14.75 19.2688 14.75C19.2582 14.75 19.2476 14.75 19.237 14.75C19.2265 14.75 19.216 14.75 19.2055 14.75C19.195 14.75 19.1845 14.75 19.1741 14.75C19.1636 14.75 19.1532 14.75 19.1428 14.75C19.1325 14.75 19.1221 14.75 19.1118 14.75C19.1014 14.75 19.0911 14.75 19.0808 14.75C19.0706 14.75 19.0603 14.75 19.0501 14.75C19.0398 14.75 19.0296 14.75 19.0194 14.75C19.0093 14.75 18.9991 14.75 18.989 14.75C18.9789 14.75 18.9688 14.75 18.9587 14.75C18.9486 14.75 18.9386 14.75 18.9285 14.75C18.9185 14.75 18.9085 14.75 18.8985 14.75C18.8886 14.75 18.8786 14.75 18.8687 14.75C18.8588 14.75 18.8489 14.75 18.839 14.75C18.8291 14.75 18.8193 14.75 18.8094 14.75C18.7996 14.75 18.7898 14.75 18.78 14.75C18.7703 14.75 18.7605 14.75 18.7508 14.75C18.7411 14.75 18.7314 14.75 18.7217 14.75C18.712 14.75 18.7024 14.75 18.6927 14.75C18.6831 14.75 18.6735 14.75 18.6639 14.75C18.6544 14.75 18.6448 14.75 18.6353 14.75C18.6257 14.75 18.6162 14.75 18.6068 14.75C18.5973 14.75 18.5878 14.75 18.5784 14.75C18.569 14.75 18.5596 14.75 18.5502 14.75C18.5408 14.75 18.5314 14.75 18.5221 14.75C18.5128 14.75 18.5034 14.75 18.4941 14.75C18.4849 14.75 18.4756 14.75 18.4663 14.75C18.4571 14.75 18.4479 14.75 18.4387 14.75C18.4295 14.75 18.4203 14.75 18.4112 14.75C18.402 14.75 18.3929 14.75 18.3838 14.75C18.3747 14.75 18.3656 14.75 18.3566 14.75C18.3475 14.75 18.3385 14.75 18.3295 14.75C18.3204 14.75 18.3115 14.75 18.3025 14.75C18.2935 14.75 18.2846 14.75 18.2757 14.75C18.2667 14.75 18.2578 14.75 18.249 14.75C18.2401 14.75 18.2312 14.75 18.2224 14.75C18.2136 14.75 18.2048 14.75 18.196 14.75C18.1872 14.75 18.1784 14.75 18.1697 14.75C18.161 14.75 18.1522 14.75 18.1435 14.75C18.1348 14.75 18.1262 14.75 18.1175 14.75C18.1089 14.75 18.1002 14.75 18.0916 14.75C18.083 14.75 18.0744 14.75 18.0659 14.75C18.0573 14.75 18.0488 14.75 18.0402 14.75C18.0317 14.75 18.0232 14.75 18.0147 14.75C18.0062 14.75 17.9978 14.75 17.9894 14.75C17.9809 14.75 17.9725 14.75 17.9641 14.75C17.9557 14.75 17.9473 14.75 17.939 14.75C17.9306 14.75 17.9223 14.75 17.914 14.75C17.9057 14.75 17.8974 14.75 17.8891 14.75C17.8808 14.75 17.8726 14.75 17.8644 14.75C17.8561 14.75 17.8479 14.75 17.8398 14.75C17.8316 14.75 17.8234 14.75 17.8153 14.75C17.8071 14.75 17.799 14.75 17.7909 14.75C17.7828 14.75 17.7747 14.75 17.7666 14.75C17.7586 14.75 17.7505 14.75 17.7425 14.75C17.7345 14.75 17.7265 14.75 17.7185 14.75C17.7105 14.75 17.7025 14.75 17.6946 14.75C17.6866 14.75 17.6787 14.75 17.6708 14.75C17.6629 14.75 17.655 14.75 17.6472 14.75C17.6393 14.75 17.6314 14.75 17.6236 14.75C17.6158 14.75 17.608 14.75 17.6002 14.75C17.5924 14.75 17.5846 14.75 17.5769 14.75C17.5691 14.75 17.5614 14.75 17.5537 14.75C17.546 14.75 17.5383 14.75 17.5306 14.75C17.5229 14.75 17.5153 14.75 17.5077 14.75C17.5 14.75 17.4924 14.75 17.4848 14.75C17.4772 14.75 17.4696 14.75 17.4621 14.75C17.4545 14.75 17.447 14.75 17.4394 14.75C17.4319 14.75 17.4244 14.75 17.4169 14.75C17.4094 14.75 17.402 14.75 17.3945 14.75C17.3871 14.75 17.3796 14.75 17.3722 14.75C17.3648 14.75 17.3574 14.75 17.35 14.75C17.3426 14.75 17.3353 14.75 17.3279 14.75C17.3206 14.75 17.3133 14.75 17.306 14.75C17.2987 14.75 17.2914 14.75 17.2841 14.75C17.2768 14.75 17.2696 14.75 17.2623 14.75C17.2551 14.75 17.2479 14.75 17.2407 14.75C17.2335 14.75 17.2263 14.75 17.2191 14.75C17.212 14.75 17.2048 14.75 17.1977 14.75C17.1905 14.75 17.1834 14.75 17.1763 14.75C17.1692 14.75 17.1621 14.75 17.1551 14.75C17.148 14.75 17.141 14.75 17.1339 14.75C17.1269 14.75 17.1199 14.75 17.1129 14.75C17.1059 14.75 17.0989 14.75 17.0919 14.75C17.085 14.75 17.078 14.75 17.0711 14.75C17.0642 14.75 17.0572 14.75 17.0503 14.75C17.0434 14.75 17.0366 14.75 17.0297 14.75C17.0228 14.75 17.016 14.75 17.0091 14.75C17.0023 14.75 16.9955 14.75 16.9887 14.75C16.9819 14.75 16.9751 14.75 16.9683 14.75C16.9615 14.75 16.9548 14.75 16.948 14.75C16.9413 14.75 16.9346 14.75 16.9279 14.75C16.9212 14.75 16.9145 14.75 16.9078 14.75C16.9011 14.75 16.8944 14.75 16.8878 14.75C16.8811 14.75 16.8745 14.75 16.8679 14.75C16.8613 14.75 16.8547 14.75 16.8481 14.75C16.8415 14.75 16.8349 14.75 16.8284 14.75C16.8218 14.75 16.8153 14.75 16.8087 14.75C16.8022 14.75 16.7957 14.75 16.7892 14.75C16.7827 14.75 16.7762 14.75 16.7697 14.75C16.7633 14.75 16.7568 14.75 16.7504 14.75C16.7439 14.75 16.7375 14.75 16.7311 14.75C16.7247 14.75 16.7183 14.75 16.7119 14.75C16.7055 14.75 16.6991 14.75 16.6928 14.75C16.6864 14.75 16.6801 14.75 16.6738 14.75C16.6674 14.75 16.6611 14.75 16.6548 14.75C16.6485 14.75 16.6422 14.75 16.636 14.75C16.6297 14.75 16.6234 14.75 16.6172 14.75C16.6109 14.75 16.6047 14.75 16.5985 14.75C16.5923 14.75 16.5861 14.75 16.5799 14.75C16.5737 14.75 16.5675 14.75 16.5613 14.75C16.5552 14.75 16.549 14.75 16.5429 14.75C16.5367 14.75 16.5306 14.75 16.5245 14.75C16.5184 14.75 16.5123 14.75 16.5062 14.75C16.5001 14.75 16.494 14.75 16.488 14.75C16.4819 14.75 16.4759 14.75 16.4698 14.75C16.4638 14.75 16.4578 14.75 16.4517 14.75C16.4457 14.75 16.4397 14.75 16.4337 14.75C16.4278 14.75 16.4218 14.75 16.4158 14.75C16.4099 14.75 16.4039 14.75 16.398 14.75C16.392 14.75 16.3861 14.75 16.3802 14.75C16.3743 14.75 16.3684 14.75 16.3625 14.75C16.3566 14.75 16.3507 14.75 16.3448 14.75C16.339 14.75 16.3331 14.75 16.3273 14.75C16.3214 14.75 16.3156 14.75 16.3098 14.75C16.304 14.75 16.2981 14.75 16.2923 14.75C16.2865 14.75 16.2808 14.75 16.275 14.75C16.2692 14.75 16.2634 14.75 16.2577 14.75C16.2519 14.75 16.2462 14.75 16.2405 14.75C16.2347 14.75 16.229 14.75 16.2233 14.75C16.2176 14.75 16.2119 14.75 16.2062 14.75C16.2005 14.75 16.1948 14.75 16.1892 14.75C16.1835 14.75 16.1778 14.75 16.1722 14.75C16.1665 14.75 16.1609 14.75 16.1553 14.75C16.1497 14.75 16.144 14.75 16.1384 14.75C16.1328 14.75 16.1272 14.75 16.1217 14.75C16.1161 14.75 16.1105 14.75 16.1049 14.75C16.0994 14.75 16.0938 14.75 16.0883 14.75C16.0827 14.75 16.0772 14.75 16.0717 14.75C16.0661 14.75 16.0606 14.75 16.0551 14.75C16.0496 14.75 16.0441 14.75 16.0386 14.75C16.0331 14.75 16.0277 14.75 16.0222 14.75C16.0167 14.75 16.0113 14.75 16.0058 14.75C16.0004 14.75 15.9949 14.75 15.9895 14.75C15.9841 14.75 15.9786 14.75 15.9732 14.75C15.9678 14.75 15.9624 14.75 15.957 14.75C15.9516 14.75 15.9462 14.75 15.9408 14.75C15.9355 14.75 15.9301 14.75 15.9247 14.75C15.9194 14.75 15.914 14.75 15.9087 14.75C15.9033 14.75 15.898 14.75 15.8927 14.75C15.8874 14.75 15.882 14.75 15.8767 14.75C15.8714 14.75 15.8661 14.75 15.8608 14.75C15.8555 14.75 15.8502 14.75 15.845 14.75C15.8397 14.75 15.8344 14.75 15.8292 14.75C15.8239 14.75 15.8186 14.75 15.8134 14.75C15.8081 14.75 15.8029 14.75 15.7977 14.75C15.7924 14.75 15.7872 14.75 15.782 14.75C15.7768 14.75 15.7716 14.75 15.7664 14.75C15.7612 14.75 15.756 14.75 15.7508 14.75C15.7456 14.75 15.7404 14.75 15.7353 14.75C15.7301 14.75 15.7249 14.75 15.7198 14.75C15.7146 14.75 15.7095 14.75 15.7043 14.75C15.6992 14.75 15.694 14.75 15.6889 14.75C15.6838 14.75 15.6787 14.75 15.6735 14.75C15.6684 14.75 15.6633 14.75 15.6582 14.75C15.6531 14.75 15.648 14.75 15.6429 14.75C15.6378 14.75 15.6327 14.75 15.6277 14.75C15.6226 14.75 15.6175 14.75 15.6124 14.75C15.6074 14.75 15.6023 14.75 15.5973 14.75C15.5922 14.75 15.5872 14.75 15.5821 14.75C15.5771 14.75 15.572 14.75 15.567 14.75C15.562 14.75 15.557 14.75 15.5519 14.75C15.5469 14.75 15.5419 14.75 15.5369 14.75C15.5319 14.75 15.5269 14.75 15.5219 14.75C15.5169 14.75 15.5119 14.75 15.5069 14.75C15.5019 14.75 15.497 14.75 15.492 14.75C15.487 14.75 15.482 14.75 15.4771 14.75C15.4721 14.75 15.4672 14.75 15.4622 14.75C15.4572 14.75 15.4523 14.75 15.4473 14.75C15.4424 14.75 15.4375 14.75 15.4325 14.75C15.4276 14.75 15.4227 14.75 15.4177 14.75C15.4128 14.75 15.4079 14.75 15.403 14.75C15.398 14.75 15.3931 14.75 15.3882 14.75C15.3833 14.75 15.3784 14.75 15.3735 14.75C15.3686 14.75 15.3637 14.75 15.3588 14.75C15.3539 14.75 15.349 14.75 15.3442 14.75C15.3393 14.75 15.3344 14.75 15.3295 14.75C15.3246 14.75 15.3198 14.75 15.3149 14.75C15.31 14.75 15.3052 14.75 15.3003 14.75C15.2954 14.75 15.2906 14.75 15.2857 14.75C15.2809 14.75 15.276 14.75 15.2712 14.75C15.2663 14.75 15.2615 14.75 15.2566 14.75C15.2518 14.75 15.247 14.75 15.2421 14.75C15.2373 14.75 15.2325 14.75 15.2276 14.75C15.2228 14.75 15.218 14.75 15.2132 14.75C15.2083 14.75 15.2035 14.75 15.1987 14.75C15.1939 14.75 15.1891 14.75 15.1842 14.75C15.1794 14.75 15.1746 14.75 15.1698 14.75C15.165 14.75 15.1602 14.75 15.1554 14.75C15.1506 14.75 15.1458 14.75 15.141 14.75C15.1362 14.75 15.1314 14.75 15.1266 14.75C15.1218 14.75 15.117 14.75 15.1122 14.75C15.1074 14.75 15.1027 14.75 15.0979 14.75C15.0931 14.75 15.0883 14.75 15.0835 14.75C15.0787 14.75 15.074 14.75 15.0692 14.75C15.0644 14.75 15.0596 14.75 15.0548 14.75C15.0501 14.75 15.0453 14.75 15.0405 14.75C15.0357 14.75 15.031 14.75 15.0262 14.75C15.0214 14.75 15.0167 14.75 15.0119 14.75C15.0071 14.75 15.0024 14.75 14.9976 14.75C14.9928 14.75 14.9881 14.75 14.9833 14.75C14.9785 14.75 14.9738 14.75 14.969 14.75C14.9642 14.75 14.9595 14.75 14.9547 14.75C14.95 14.75 14.9452 14.75 14.9404 14.75C14.9357 14.75 14.9309 14.75 14.9262 14.75C14.9214 14.75 14.9166 14.75 14.9119 14.75C14.9071 14.75 14.9024 14.75 14.8976 14.75C14.8928 14.75 14.8881 14.75 14.8833 14.75C14.8786 14.75 14.8738 14.75 14.8691 14.75C14.8643 14.75 14.8595 14.75 14.8548 14.75C14.85 14.75 14.8453 14.75 14.8405 14.75C14.8357 14.75 14.831 14.75 14.8262 14.75C14.8215 14.75 14.8167 14.75 14.8119 14.75C14.8072 14.75 14.8024 14.75 14.7977 14.75C14.7929 14.75 14.7881 14.75 14.7834 14.75C14.7786 14.75 14.7738 14.75 14.7691 14.75C14.7643 14.75 14.7595 14.75 14.7548 14.75C14.75 14.75 14.7452 14.75 14.7405 14.75C14.7357 14.75 14.7309 14.75 14.7261 14.75C14.7214 14.75 14.7166 14.75 14.7118 14.75C14.707 14.75 14.7023 14.75 14.6975 14.75C14.6927 14.75 14.6879 14.75 14.6831 14.75C14.6784 14.75 14.6736 14.75 14.6688 14.75C14.664 14.75 14.6592 14.75 14.6544 14.75C14.6496 14.75 14.6448 14.75 14.6401 14.75C14.6353 14.75 14.6305 14.75 14.6257 14.75C14.6209 14.75 14.6161 14.75 14.6113 14.75C14.6065 14.75 14.6017 14.75 14.5969 14.75C14.592 14.75 14.5872 14.75 14.5824 14.75C14.5776 14.75 14.5728 14.75 14.568 14.75C14.5632 14.75 14.5583 14.75 14.5535 14.75C14.5487 14.75 14.5439 14.75 14.539 14.75C14.5342 14.75 14.5294 14.75 14.5245 14.75C14.5197 14.75 14.5149 14.75 14.51 14.75C14.5052 14.75 14.5003 14.75 14.4955 14.75C14.4906 14.75 14.4858 14.75 14.4809 14.75C14.4761 14.75 14.4712 14.75 14.4664 14.75C14.4615 14.75 14.4566 14.75 14.4518 14.75C14.4469 14.75 14.442 14.75 14.4371 14.75C14.4323 14.75 14.4274 14.75 14.4225 14.75C14.4176 14.75 14.4127 14.75 14.4078 14.75C14.403 14.75 14.3981 14.75 14.3932 14.75C14.3883 14.75 14.3833 14.75 14.3784 14.75C14.3735 14.75 14.3686 14.75 14.3637 14.75C14.3588 14.75 14.3539 14.75 14.3489 14.75C14.344 14.75 14.3391 14.75 14.3341 14.75C14.3292 14.75 14.3243 14.75 14.3193 14.75C14.3144 14.75 14.3094 14.75 14.3045 14.75C14.2995 14.75 14.2946 14.75 14.2896 14.75C14.2846 14.75 14.2797 14.75 14.2747 14.75C14.2697 14.75 14.2647 14.75 14.2597 14.75C14.2548 14.75 14.2498 14.75 14.2448 14.75C14.2398 14.75 14.2348 14.75 14.2298 14.75C14.2248 14.75 14.2197 14.75 14.2147 14.75C14.2097 14.75 14.2047 14.75 14.1996 14.75C14.1946 14.75 14.1896 14.75 14.1845 14.75C14.1795 14.75 14.1745 14.75 14.1694 14.75C14.1643 14.75 14.1593 14.75 14.1542 14.75C14.1492 14.75 14.1441 14.75 14.139 14.75C14.1339 14.75 14.1288 14.75 14.1238 14.75C14.1187 14.75 14.1136 14.75 14.1085 14.75C14.1034 14.75 14.0982 14.75 14.0931 14.75C14.088 14.75 14.0829 14.75 14.0778 14.75C14.0726 14.75 14.0675 14.75 14.0623 14.75C14.0572 14.75 14.0521 14.75 14.0469 14.75C14.0417 14.75 14.0366 14.75 14.0314 14.75C14.0262 14.75 14.0211 14.75 14.0159 14.75C14.0107 14.75 14.0055 14.75 14.0003 14.75C13.9951 14.75 13.9899 14.75 13.9847 14.75C13.9794 14.75 13.9742 14.75 13.969 14.75C13.9638 14.75 13.9585 14.75 13.9533 14.75C13.948 14.75 13.9428 14.75 13.9375 14.75C13.9323 14.75 13.927 14.75 13.9217 14.75C13.9164 14.75 13.9111 14.75 13.9058 14.75C13.9006 14.75 13.8953 14.75 13.8899 14.75C13.8846 14.75 13.8793 14.75 13.874 14.75C13.8687 14.75 13.8633 14.75 13.858 14.75C13.8526 14.75 13.8473 14.75 13.8419 14.75C13.8366 14.75 13.8312 14.75 13.8258 14.75C13.8204 14.75 13.8151 14.75 13.8097 14.75C13.8043 14.75 13.7989 14.75 13.7934 14.75C13.788 14.75 13.7826 14.75 13.7772 14.75C13.7717 14.75 13.7663 14.75 13.7609 14.75C13.7554 14.75 13.7499 14.75 13.7445 14.75C13.739 14.75 13.7335 14.75 13.728 14.75C13.7226 14.75 13.7171 14.75 13.7116 14.75C13.706 14.75 13.7005 14.75 13.695 14.75C13.6895 14.75 13.6839 14.75 13.6784 14.75C13.6729 14.75 13.6673 14.75 13.6617 14.75C13.6562 14.75 13.6506 14.75 13.645 14.75C13.6394 14.75 13.6338 14.75 13.6282 14.75C13.6226 14.75 13.617 14.75 13.6114 14.75C13.6058 14.75 13.6001 14.75 13.5945 14.75C13.5888 14.75 13.5832 14.75 13.5775 14.75C13.5718 14.75 13.5662 14.75 13.5605 14.75C13.5548 14.75 13.5491 14.75 13.5434 14.75C13.5377 14.75 13.5319 14.75 13.5262 14.75C13.5205 14.75 13.5147 14.75 13.509 14.75C13.5032 14.75 13.4975 14.75 13.4917 14.75C13.4859 14.75 13.4801 14.75 13.4743 14.75C13.4685 14.75 13.4627 14.75 13.4569 14.75C13.4511 14.75 13.4452 14.75 13.4394 14.75C13.4335 14.75 13.4277 14.75 13.4218 14.75C13.416 14.75 13.4101 14.75 13.4042 14.75C13.3983 14.75 13.3924 14.75 13.3865 14.75C13.3806 14.75 13.3746 14.75 13.3687 14.75C13.3628 14.75 13.3568 14.75 13.3508 14.75C13.3449 14.75 13.3389 14.75 13.3329 14.75C13.3269 14.75 13.3209 14.75 13.3149 14.75C13.3089 14.75 13.3029 14.75 13.2968 14.75C13.2908 14.75 13.2848 14.75 13.2787 14.75C13.2726 14.75 13.2666 14.75 13.2605 14.75C13.2544 14.75 13.2483 14.75 13.2422 14.75C13.2361 14.75 13.2299 14.75 13.2238 14.75C13.2176 14.75 13.2115 14.75 13.2053 14.75C13.1992 14.75 13.193 14.75 13.1868 14.75C13.1806 14.75 13.1744 14.75 13.1682 14.75C13.162 14.75 13.1557 14.75 13.1495 14.75C13.1432 14.75 13.137 14.75 13.1307 14.75C13.1244 14.75 13.1181 14.75 13.1118 14.75C13.1055 14.75 13.0992 14.75 13.0929 14.75C13.0866 14.75 13.0802 14.75 13.0739 14.75C13.0675 14.75 13.0612 14.75 13.0548 14.75C13.0484 14.75 13.042 14.75 13.0356 14.75C13.0292 14.75 13.0227 14.75 13.0163 14.75C13.0099 14.75 13.0034 14.75 12.9969 14.75C12.9905 14.75 12.984 14.75 12.9775 14.75C12.971 14.75 12.9645 14.75 12.9579 14.75C12.9514 14.75 12.9449 14.75 12.9383 14.75C12.9317 14.75 12.9252 14.75 12.9186 14.75C12.912 14.75 12.9054 14.75 12.8988 14.75C12.8922 14.75 12.8855 14.75 12.8789 14.75C12.8722 14.75 12.8656 14.75 12.8589 14.75C12.8522 14.75 12.8455 14.75 12.8388 14.75C12.8321 14.75 12.8254 14.75 12.8186 14.75C12.8119 14.75 12.8051 14.75 12.7984 14.75C12.7916 14.75 12.7848 14.75 12.778 14.75C12.7712 14.75 12.7644 14.75 12.7575 14.75C12.7507 14.75 12.7438 14.75 12.737 14.75C12.7301 14.75 12.7232 14.75 12.7163 14.75C12.7094 14.75 12.7025 14.75 12.6956 14.75C12.6886 14.75 12.6817 14.75 12.6747 14.75C12.6678 14.75 12.6608 14.75 12.6538 14.75C12.6468 14.75 12.6398 14.75 12.6327 14.75C12.6257 14.75 12.6187 14.75 12.6116 14.75C12.6045 14.75 12.5974 14.75 12.5903 14.75C12.5832 14.75 12.5761 14.75 12.569 14.75C12.5619 14.75 12.5547 14.75 12.5475 14.75C12.5404 14.75 12.5332 14.75 12.526 14.75C12.5188 14.75 12.5116 14.75 12.5043 14.75C12.4971 14.75 12.4898 14.75 12.4826 14.75C12.4753 14.75 12.468 14.75 12.4607 14.75C12.4534 14.75 12.4461 14.75 12.4387 14.75C12.4314 14.75 12.424 14.75 12.4166 14.75C12.4093 14.75 12.4019 14.75 12.3945 14.75C12.387 14.75 12.3796 14.75 12.3722 14.75C12.3647 14.75 12.3572 14.75 12.3497 14.75C12.3423 14.75 12.3348 14.75 12.3272 14.75C12.3197 14.75 12.3122 14.75 12.3046 14.75C12.297 14.75 12.2895 14.75 12.2819 14.75C12.2743 14.75 12.2667 14.75 12.259 14.75C12.2514 14.75 12.2437 14.75 12.236 14.75C12.2284 14.75 12.2207 14.75 12.213 14.75C12.2053 14.75 12.1975 14.75 12.1898 14.75C12.182 14.75 12.1743 14.75 12.1665 14.75C12.1587 14.75 12.1509 14.75 12.1431 14.75C12.1352 14.75 12.1274 14.75 12.1195 14.75C12.1116 14.75 12.1038 14.75 12.0959 14.75C12.088 14.75 12.08 14.75 12.0721 14.75C12.0641 14.75 12.0562 14.75 12.0482 14.75C12.0402 14.75 12.0322 14.75 12.0242 14.75C12.0162 14.75 12.0081 14.75 12 14.75C11.992 14.75 11.9839 14.75 11.9758 14.75C11.9677 14.75 11.9596 14.75 11.9514 14.75C11.9433 14.75 11.9351 14.75 11.9269 14.75C11.9187 14.75 11.9105 14.75 11.9023 14.75C11.8941 14.75 11.8858 14.75 11.8775 14.75C11.8693 14.75 11.861 14.75 11.8527 14.75C11.8444 14.75 11.836 14.75 11.8277 14.75C11.8193 14.75 11.811 14.75 11.8026 14.75C11.7942 14.75 11.7858 14.75 11.7773 14.75C11.7689 14.75 11.7604 14.75 11.7519 14.75C11.7435 14.75 11.735 14.75 11.7264 14.75C11.7179 14.75 11.7094 14.75 11.7008 14.75C11.6922 14.75 11.6836 14.75 11.675 14.75C11.6664 14.75 11.6578 14.75 11.6491 14.75C11.6405 14.75 11.6318 14.75 11.6231 14.75C11.6144 14.75 11.6057 14.75 11.597 14.75C11.5882 14.75 11.5795 14.75 11.5707 14.75C11.5619 14.75 11.5531 14.75 11.5443 14.75C11.5354 14.75 11.5266 14.75 11.5177 14.75C11.5088 14.75 11.4999 14.75 11.491 14.75C11.4821 14.75 11.4731 14.75 11.4642 14.75C11.4552 14.75 11.4462 14.75 11.4372 14.75C11.4282 14.75 11.4192 14.75 11.4101 14.75C11.4011 14.75 11.392 14.75 11.3829 14.75C11.3738 14.75 11.3646 14.75 11.3555 14.75C11.3463 14.75 11.3372 14.75 11.328 14.75C11.3188 14.75 11.3096 14.75 11.3003 14.75C11.2911 14.75 11.2818 14.75 11.2725 14.75C11.2632 14.75 11.2539 14.75 11.2446 14.75C11.2352 14.75 11.2259 14.75 11.2165 14.75C11.2071 14.75 11.1977 14.75 11.1883 14.75C11.1788 14.75 11.1694 14.75 11.1599 14.75C11.1504 14.75 11.1409 14.75 11.1314 14.75C11.1219 14.75 11.1123 14.75 11.1027 14.75C11.0932 14.75 11.0836 14.75 11.0739 14.75C11.0643 14.75 11.0546 14.75 11.045 14.75C11.0353 14.75 11.0256 14.75 11.0159 14.75C11.0061 14.75 10.9964 14.75 10.9866 14.75C10.9769 14.75 10.9671 14.75 10.9572 14.75C10.9474 14.75 10.9376 14.75 10.9277 14.75C10.9178 14.75 10.9079 14.75 10.898 14.75C10.8881 14.75 10.8781 14.75 10.8681 14.75C10.8582 14.75 10.8482 14.75 10.8381 14.75C10.8281 14.75 10.8181 14.75 10.808 14.75C10.7979 14.75 10.7878 14.75 10.7777 14.75C10.7676 14.75 10.7574 14.75 10.7472 14.75C10.737 14.75 10.7268 14.75 10.7166 14.75C10.7064 14.75 10.6961 14.75 10.6858 14.75C10.6756 14.75 10.6652 14.75 10.6549 14.75C10.6446 14.75 10.6342 14.75 10.6238 14.75C10.6134 14.75 10.603 14.75 10.5926 14.75C10.5821 14.75 10.5717 14.75 10.5612 14.75C10.5507 14.75 10.5402 14.75 10.5296 14.75C10.5191 14.75 10.5085 14.75 10.4979 14.75C10.4873 14.75 10.4767 14.75 10.466 14.75C10.4554 14.75 10.4447 14.75 10.434 14.75C10.4233 14.75 10.4125 14.75 10.4018 14.75C10.391 14.75 10.3802 14.75 10.3694 14.75C10.3586 14.75 10.3477 14.75 10.3369 14.75C10.326 14.75 10.3151 14.75 10.3042 14.75C10.2933 14.75 10.2823 14.75 10.2713 14.75C10.2603 14.75 10.2493 14.75 10.2383 14.75C10.2273 14.75 10.2162 14.75 10.2051 14.75C10.194 14.75 10.1829 14.75 10.1717 14.75C10.1606 14.75 10.1494 14.75 10.1382 14.75C10.127 14.75 10.1158 14.75 10.1045 14.75C10.0932 14.75 10.082 14.75 10.0706 14.75C10.0593 14.75 10.048 14.75 10.0366 14.75C10.0252 14.75 10.0138 14.75 10.0024 14.75C9.99096 14.75 9.9795 14.75 9.96801 14.75C9.95653 14.75 9.94501 14.75 9.93346 14.75C9.92191 14.75 9.91034 14.75 9.89873 14.75C9.88713 14.75 9.8755 14.75 9.86383 14.75C9.85217 14.75 9.84048 14.75 9.82876 14.75C9.81704 14.75 9.80529 14.75 9.79351 14.75C9.78173 14.75 9.76992 14.75 9.75808 14.75C9.74624 14.75 9.73437 14.75 9.72248 14.75C9.71058 14.75 9.69865 14.75 9.68669 14.75C9.67474 14.75 9.66275 14.75 9.65073 14.75C9.63872 14.75 9.62667 14.75 9.61459 14.75C9.60252 14.75 9.59041 14.75 9.57827 14.75C9.56614 14.75 9.55397 14.75 9.54177 14.75C9.52958 14.75 9.51735 14.75 9.50509 14.75C9.49283 14.75 9.48054 14.75 9.46823 14.75C9.45591 14.75 9.44356 14.75 9.43118 14.75C9.4188 14.75 9.40639 14.75 9.39395 14.75C9.38151 14.75 9.36904 14.75 9.35653 14.75C9.34403 14.75 9.3315 14.75 9.31893 14.75C9.30637 14.75 9.29377 14.75 9.28115 14.75C9.26852 14.75 9.25586 14.75 9.24317 14.75C9.23049 14.75 9.21777 14.75 9.20501 14.75C9.19226 14.75 9.17948 14.75 9.16667 14.75V16.25ZM21.1303 14.9697L16.9303 10.7697L15.8697 11.8303L20.0697 16.0303L21.1303 14.9697ZM20.0697 14.9697L15.8697 19.1697L16.9303 20.2303L21.1303 16.0303L20.0697 14.9697Z" fill="#6E7074"/>
</svg>
